<svg width="512" height="512" viewBox="0 0 171 171" fill="none" xmlns="http://www.w3.org/2000/svg">
  <g transform="translate(0 5.5)">
    <path d="M83.2632 4.50826C77.444 0.177636 70.1289 -1.10715 63.1818 0.976561L16.1892 15.074C6.5082 17.9801 0 26.7203 0 36.8317V137.271C0 144.523 3.3365 151.165 9.15511 155.489C14.9748 159.82 22.2979 161.104 29.237 159.021L64.3172 148.494C63.2202 144.876 62.6645 141.101 62.6645 137.271V91.6567C62.6645 82.0782 66.1578 72.93 72.5172 65.9125C77.1848 60.7429 83.2397 56.9291 90.0066 54.8928L92.4188 54.2038V22.7337C92.4188 15.481 89.0823 8.83942 83.2627 4.50826H83.2632Z" fill="#6E55FF"/>
    <path d="M170.74 77.5587V123.173C170.74 133.277 164.239 142.025 154.551 144.923L107.558 159.021C105.381 159.678 103.165 160 100.972 160C96.1702 160 91.4711 158.465 87.4764 155.489C85.6514 154.126 84.0695 152.552 82.7693 150.789C81.1874 148.675 80.0045 146.318 79.2605 143.787C79.2525 143.787 79.2451 143.787 79.2371 143.795L79.2525 143.779C78.6499 141.704 78.3208 139.519 78.3208 137.271V91.6567C78.3208 86.973 79.7149 82.5795 82.1746 78.9294C84.6338 75.2793 88.158 72.3662 92.4188 70.635C93.1004 70.3609 93.7975 70.1097 94.5105 69.899L100.259 68.1759L141.504 55.8011C148.45 53.7173 155.766 55.0021 161.585 59.3333C167.405 63.6644 170.741 70.306 170.741 77.5587H170.74Z" fill="#6E55FF"/>
  </g>
</svg>
